<svg id="Icons_Navigation_icon_12_states_" data-name="Icons / Navigation icon (12 states)" xmlns="http://www.w3.org/2000/svg" width="24" height="24" viewBox="0 0 24 24">
  <g id="ic-search">
    <rect id="BG" width="24" height="24" fill="none"/>
    <path id="color" d="M16,17a1,1,0,0,1-.613-.21l-.095-.084-3.245-3.243A7.432,7.432,0,0,1,7.5,15,7.5,7.5,0,1,1,15,7.5a7.431,7.431,0,0,1-1.536,4.549l3.243,3.244A1,1,0,0,1,16,17ZM7.5,2a5.5,5.5,0,1,0,3.546,9.7,1,1,0,0,1,.659-.66A5.5,5.5,0,0,0,7.5,2Z" transform="translate(3 3)"/>
  </g>
</svg>
